<?xml version="1.0" encoding="utf-8"?>
<!-- Generator: Adobe Illustrator 16.0.0, SVG Export Plug-In . SVG Version: 6.00 Build 0)  -->
<!DOCTYPE svg PUBLIC "-//W3C//DTD SVG 1.1//EN" "http://www.w3.org/Graphics/SVG/1.1/DTD/svg11.dtd">
<svg version="1.1" id="el_PGolrxZa4" xmlns="http://www.w3.org/2000/svg" xmlns:xlink="http://www.w3.org/1999/xlink" x="0px"
	 y="0px" width="500px" height="500px" viewBox="0 0 500 500" enable-background="new 0 0 500 500" xml:space="preserve">
<path fill="#FFAB00" d="M280.963,158.87c31.581-16.094,44.138-54.734,28.049-86.314c-16.089-31.581-54.737-44.136-86.317-28.048
	c-31.581,16.088-44.13,54.734-28.048,86.32C210.741,162.403,249.381,174.964,280.963,158.87z"/>
<path fill="#FFAB00" d="M171.532,196.242c-6.158-34.907-39.438-58.212-74.342-52.059s-58.211,39.441-52.059,74.345
	c6.152,34.904,39.44,58.205,74.348,52.06C154.379,264.429,177.689,231.15,171.532,196.242z"/>
<path fill="#FFAB00" d="M175.276,311.818c-35.182-4.317-67.199,20.695-71.52,55.873c-4.321,35.179,20.699,67.199,55.876,71.521
	c35.178,4.322,67.193-20.699,71.522-55.878C235.468,348.157,210.459,316.136,175.276,311.818z"/>
<path fill="#FFAB00" d="M286.897,342.028c-14.415,32.383,0.144,70.313,32.521,84.73c32.379,14.418,70.315-0.146,84.732-32.523
	c14.418-32.378-0.149-70.31-32.525-84.734C339.246,295.091,301.313,309.646,286.897,342.028z"/>
<path fill="#FFAB00" d="M348.422,244.117c26.753,23.253,67.283,20.421,90.536-6.327c23.255-26.749,20.418-67.286-6.329-90.539
	c-26.747-23.254-67.281-20.414-90.541,6.331C318.841,180.333,321.669,220.864,348.422,244.117z"/>
<path fill="#FFAB00" d="M233.965,269.163c9.753,9.753,25.569,9.753,35.322,0c9.752-9.752,9.752-25.569,0-35.322
	c-9.753-9.758-25.569-9.758-35.322,0C224.212,243.594,224.208,259.411,233.965,269.163z"/>
<script>
	(function(){var a=document.querySelector(&apos;#el_PGolrxZa4&apos;),b=a.querySelectorAll(&apos;style&apos;),c=function(d){b.forEach(function(f){var g=f.textContent;g&amp;&amp;(f.textContent=g.replace(/transform-box:[^;\r\n]*/gi,&apos;transform-box: &apos;+d))})};c(&apos;initial&apos;),window.requestAnimationFrame(function(){return c(&apos;fill-box&apos;)})})();
	</script>
</svg>
