<?xml version="1.0" encoding="utf-8"?>
<!-- Generator: Adobe Illustrator 16.0.0, SVG Export Plug-In . SVG Version: 6.00 Build 0)  -->
<!DOCTYPE svg PUBLIC "-//W3C//DTD SVG 1.1//EN" "http://www.w3.org/Graphics/SVG/1.1/DTD/svg11.dtd">
<svg version="1.1" id="Vrstva_1" xmlns="http://www.w3.org/2000/svg" xmlns:xlink="http://www.w3.org/1999/xlink" x="0px" y="0px"
	 width="133.5px" height="39.917px" viewBox="0 0 133.5 39.917" enable-background="new 0 0 133.5 39.917" xml:space="preserve">
<g>
	<path fill="#263238" d="M33.528,38.859h-6.271V27.298c0-1.358-0.249-2.345-0.745-2.959c-0.496-0.614-1.137-0.922-1.92-0.922
		c-0.418,0-0.842,0.093-1.273,0.274c-0.432,0.184-0.83,0.438-1.195,0.765c-0.366,0.327-0.699,0.712-1,1.155
		c-0.3,0.445-0.542,0.929-0.725,1.451v11.795h-6.27v-11.56c0-1.357-0.249-2.345-0.745-2.959c-0.497-0.613-1.136-0.922-1.921-0.922
		c-0.836,0-1.652,0.334-2.449,1c-0.797,0.666-1.378,1.548-1.744,2.646v11.797H1V18.284h5.643v3.448
		c0.758-1.254,1.784-2.209,3.077-2.861c1.293-0.652,2.802-0.979,4.526-0.979c0.861,0,1.613,0.104,2.254,0.313
		c0.639,0.21,1.194,0.497,1.665,0.861c0.47,0.367,0.849,0.791,1.137,1.272c0.286,0.484,0.495,1,0.626,1.55
		c0.784-1.279,1.816-2.268,3.097-2.959c1.281-0.691,2.743-1.039,4.39-1.039c1.306,0,2.357,0.241,3.154,0.726
		c0.797,0.483,1.417,1.11,1.861,1.882c0.443,0.771,0.738,1.613,0.882,2.527s0.216,1.803,0.216,2.664V38.859z"/>
	<path fill="#263238" d="M44.305,39.25c-1.752,0-3.313-0.287-4.684-0.861c-1.371-0.574-2.527-1.354-3.469-2.332
		c-0.94-0.979-1.652-2.115-2.135-3.41c-0.484-1.293-0.726-2.645-0.726-4.055c0-1.412,0.241-2.763,0.726-4.057
		c0.482-1.293,1.194-2.43,2.135-3.409s2.098-1.765,3.469-2.353s2.932-0.881,4.684-0.881c1.75,0,3.304,0.293,4.662,0.881
		c1.359,0.588,2.509,1.373,3.449,2.353c0.941,0.979,1.659,2.116,2.156,3.409c0.496,1.294,0.744,2.646,0.744,4.057
		c0,1.411-0.242,2.762-0.726,4.055c-0.483,1.295-1.194,2.432-2.136,3.41c-0.94,0.979-2.096,1.758-3.468,2.332
		C47.614,38.963,46.055,39.25,44.305,39.25z M39.719,28.591c0,1.619,0.432,2.918,1.293,3.897c0.863,0.979,1.96,1.47,3.293,1.47
		c0.652,0,1.254-0.129,1.803-0.392c0.548-0.262,1.024-0.627,1.43-1.099c0.404-0.471,0.725-1.038,0.961-1.704
		c0.234-0.666,0.352-1.392,0.352-2.175c0-1.621-0.431-2.92-1.293-3.899c-0.862-0.979-1.946-1.469-3.252-1.469
		c-0.654,0-1.262,0.131-1.822,0.391c-0.563,0.263-1.046,0.629-1.451,1.099c-0.404,0.47-0.725,1.038-0.959,1.704
		C39.836,27.082,39.719,27.807,39.719,28.591z"/>
	<path fill="#263238" d="M59.862,38.859l-7.289-20.575h6.467l4.506,15.557l4.547-15.557h5.839l-7.25,20.575H59.862z"/>
	<path fill="#263238" d="M73.186,15.932V10.25h6.271v5.682H73.186z M73.186,38.859V18.284h6.271v20.575H73.186z"/>
	<path fill="#263238" d="M90.469,39.25c-1.726,0-3.273-0.281-4.645-0.842c-1.371-0.563-2.534-1.326-3.488-2.293
		c-0.954-0.967-1.679-2.082-2.175-3.352c-0.496-1.268-0.745-2.594-0.745-3.979c0-1.489,0.249-2.895,0.745-4.215
		c0.496-1.316,1.215-2.475,2.155-3.467c0.939-0.994,2.097-1.775,3.469-2.353c1.371-0.573,2.931-0.862,4.684-0.862
		c1.749,0,3.305,0.289,4.663,0.862c1.357,0.575,2.509,1.353,3.447,2.332c0.941,0.979,1.652,2.11,2.137,3.39
		c0.482,1.28,0.726,2.627,0.726,4.037c0,0.366-0.014,0.727-0.039,1.077c-0.024,0.354-0.063,0.66-0.116,0.923H86.078
		c0.105,1.385,0.607,2.436,1.509,3.153c0.9,0.719,1.927,1.078,3.076,1.078c0.914,0,1.797-0.224,2.646-0.666
		c0.853-0.445,1.418-1.045,1.705-1.804l5.33,1.487c-0.812,1.621-2.064,2.939-3.763,3.959C94.882,38.742,92.846,39.25,90.469,39.25z
		 M94.818,26.631c-0.131-1.306-0.604-2.338-1.41-3.096c-0.811-0.758-1.814-1.137-3.018-1.137c-1.229,0-2.242,0.386-3.037,1.156
		c-0.799,0.771-1.263,1.797-1.394,3.074L94.818,26.631L94.818,26.631z"/>
	<path fill="#263238" d="M125.975,18.284h5.955l-8.505,20.575h-5.133l-3.176-8.465l-3.174,8.465h-5.135l-8.504-20.575h5.918
		l5.604,14.774l1.92-5.604l-3.646-9.17h5.019l1.998,6.19l1.961-6.19h5.016l-3.604,9.17l1.921,5.604L125.975,18.284z"/>
</g>
<g>
	<path fill="#F5A816" d="M103.585,7.482c0.479-0.096,1.45-0.168,2.362-0.168c1.115,0,1.799,0.108,2.387,0.456
		c0.563,0.3,0.972,0.852,0.972,1.583c0,0.719-0.42,1.391-1.331,1.727v0.024c0.924,0.252,1.606,0.947,1.606,1.991
		c0,0.731-0.336,1.308-0.839,1.715c-0.588,0.468-1.571,0.731-3.18,0.731c-0.898,0-1.57-0.06-1.979-0.12L103.585,7.482L103.585,7.482
		z M105.395,10.577h0.601c0.96,0,1.476-0.396,1.476-0.996c0-0.611-0.468-0.935-1.296-0.935c-0.396,0-0.623,0.024-0.778,0.048v1.883
		H105.395z M105.395,14.163c0.18,0.024,0.396,0.024,0.709,0.024c0.826,0,1.559-0.312,1.559-1.163c0-0.815-0.731-1.14-1.643-1.14
		h-0.625V14.163z"/>
	<path fill="#F5A816" d="M116.241,12.04h-2.973v1.919h3.321v1.499h-5.157V7.375h4.989v1.499h-3.153v1.679h2.973V12.04L116.241,12.04
		z"/>
	<path fill="#F5A816" d="M120,8.91h-2.171V7.375h6.213V8.91h-2.207v6.548H120V8.91L120,8.91z"/>
	<path fill="#F5A816" d="M127.5,13.383l-0.576,2.075h-1.896l2.472-8.083h2.397l2.508,8.083h-1.967l-0.625-2.075H127.5z
		 M129.549,12.016l-0.504-1.715c-0.145-0.479-0.288-1.08-0.408-1.559h-0.023c-0.119,0.479-0.239,1.091-0.371,1.559l-0.479,1.715
		H129.549z"/>
</g>
</svg>
