<?xml version="1.0" encoding="utf-8"?>
<!-- Generator: Adobe Illustrator 16.0.0, SVG Export Plug-In . SVG Version: 6.00 Build 0)  -->
<!DOCTYPE svg PUBLIC "-//W3C//DTD SVG 1.1//EN" "http://www.w3.org/Graphics/SVG/1.1/DTD/svg11.dtd">
<svg version="1.1" id="Vrstva_1" xmlns="http://www.w3.org/2000/svg" xmlns:xlink="http://www.w3.org/1999/xlink" x="0px" y="0px"
	 width="128.649px" height="53.706px" viewBox="10.342 5.313 128.649 53.706" enable-background="new 10.342 5.313 128.649 53.706"
	 xml:space="preserve">
<g>
	<path fill="#111A21" d="M121.411,59.019H10.342V22.895c0-9.695,7.887-17.582,17.581-17.582h111.068v36.126
		C138.991,51.131,131.104,59.019,121.411,59.019z M14.342,55.019h107.069c7.487,0,13.58-6.093,13.58-13.58V9.313H27.923
		c-7.489,0-13.581,6.093-13.581,13.582V55.019z"/>
</g>
<g>
	<g>
		<path fill="#111A21" d="M37.068,38.379l-0.018-8.103l-2.991,6.854h-2.066L29,30.28v8.101h-2.83V25.897h3.472l3.383,7.428
			l3.384-7.428h3.454v12.482H37.068z"/>
	</g>
	<g>
		<path fill="#111A21" d="M58.609,32.132c0,3.631-2.885,6.391-6.749,6.391c-3.847,0-6.731-2.741-6.731-6.391
			c0-3.635,2.885-6.323,6.731-6.323C55.724,25.809,58.609,28.516,58.609,32.132z M48.37,32.148c0,2.103,1.621,3.724,3.525,3.724
			c1.924,0,3.455-1.621,3.455-3.724c0-2.102-1.531-3.685-3.455-3.685C49.972,28.463,48.37,30.046,48.37,32.148z"/>
	</g>
	<g>
		<path fill="#111A21" d="M67.257,38.379l-4.843-12.463h3.384l3.188,9.172l3.188-9.172h3.26l-4.896,12.465h-3.279L67.257,38.379
			L67.257,38.379z"/>
	</g>
	<g>
		<path fill="#111A21" d="M80.23,38.379V25.916h3.17v12.465h-3.17V38.379z"/>
	</g>
	<g>
		<path fill="#111A21" d="M92.63,28.409v2.475h5.948v2.496H92.63v2.51h6.784v2.492H89.46V25.916h9.758v2.493H92.63z"/>
	</g>
	<g>
		<path fill="#111A21" d="M115.791,38.379l-2.314-8.616l-2.352,8.616h-3.275l-4.08-12.463h3.385l2.438,9.172l2.386-9.172h3.102
			l2.438,9.172l2.403-9.172h3.241l-4.113,12.465h-3.258V38.379z"/>
	</g>
</g>
</svg>
