<?xml version="1.0" encoding="utf-8"?>
<!-- Generator: Adobe Illustrator 16.0.0, SVG Export Plug-In . SVG Version: 6.00 Build 0)  -->
<!DOCTYPE svg PUBLIC "-//W3C//DTD SVG 1.1//EN" "http://www.w3.org/Graphics/SVG/1.1/DTD/svg11.dtd">
<svg version="1.1" id="Layer_1" xmlns="http://www.w3.org/2000/svg" xmlns:xlink="http://www.w3.org/1999/xlink" x="0px" y="0px"
	 width="180px" height="180px" viewBox="0 0 180 180" enable-background="new 0 0 180 180" xml:space="preserve">
<path fill="#010101" d="M131.529,121.978h-16.684V91.223c0-3.613-0.662-6.237-1.98-7.871c-1.32-1.634-3.025-2.453-5.108-2.453
	c-1.112,0-2.239,0.247-3.386,0.73c-1.149,0.488-2.209,1.164-3.179,2.034c-0.975,0.871-1.86,1.895-2.661,3.073
	c-0.797,1.184-1.441,2.47-1.928,3.86v31.376H79.924v-30.75c0-3.613-0.662-6.237-1.982-7.871c-1.32-1.634-3.021-2.453-5.11-2.453
	c-2.223,0-4.394,0.889-6.514,2.661c-2.121,1.771-3.665,4.116-4.639,7.037v31.381H45V67.245h15.011v9.173
	c2.016-3.335,4.746-5.876,8.185-7.612c3.44-1.735,7.454-2.603,12.04-2.603c2.29,0,4.29,0.276,5.995,0.832
	c1.7,0.559,3.176,1.322,4.429,2.291c1.25,0.977,2.259,2.104,3.025,3.387c0.76,1.289,1.315,2.66,1.665,4.12
	c2.084-3.403,4.83-6.03,8.237-7.871c3.409-1.839,7.298-2.764,11.679-2.764c3.476,0,6.271,0.645,8.391,1.931
	c2.12,1.285,3.768,2.953,4.952,5.005c1.177,2.053,1.961,4.292,2.343,6.723c0.385,2.432,0.577,4.796,0.577,7.086V121.978z"/>
<path fill="none" stroke="#010101" stroke-width="15" stroke-miterlimit="10" d="M162,162H18V18h72c0,0,72,0,72,72S162,162,162,162z
	"/>
</svg>
