<?xml version="1.0" encoding="utf-8"?>
<!-- Generator: Adobe Illustrator 16.0.0, SVG Export Plug-In . SVG Version: 6.00 Build 0)  -->
<!DOCTYPE svg PUBLIC "-//W3C//DTD SVG 1.1//EN" "http://www.w3.org/Graphics/SVG/1.1/DTD/svg11.dtd">
<svg version="1.1" id="Layer_1" xmlns="http://www.w3.org/2000/svg" xmlns:xlink="http://www.w3.org/1999/xlink" x="0px" y="0px"
	 width="600px" height="900px" viewBox="0 0 600 900" enable-background="new 0 0 600 900" xml:space="preserve">
<rect x="0" y="0" fill="#FFBD08" width="600" height="900"/>
<g>
	<path fill="#111A21" d="M300,429.651c17.149,0,31.051,13.899,31.051,31.052c0,17.15-13.9,31.052-31.051,31.052
		c-17.151,0-31.05-13.9-31.05-31.052S282.85,429.651,300,429.651z"/>
	<path fill="#111A21" d="M270.892,363.676l-17.757,19.404h-30.756c-10.669,0-19.405,8.735-19.405,19.405v116.433
		c0,10.67,8.736,19.405,19.405,19.405h155.242c10.67,0,19.404-8.735,19.404-19.405V402.486c0-10.67-8.734-19.405-19.404-19.405
		h-30.757l-17.758-19.404H270.892z M300,509.217c-26.777,0-48.514-21.736-48.514-48.515c0-26.777,21.736-48.514,48.514-48.514
		c26.776,0,48.514,21.735,48.514,48.514C348.514,487.48,326.777,509.217,300,509.217z"/>
</g>
</svg>
