<?xml version="1.0" encoding="utf-8"?>
<!-- Generator: Adobe Illustrator 16.0.0, SVG Export Plug-In . SVG Version: 6.00 Build 0)  -->
<!DOCTYPE svg PUBLIC "-//W3C//DTD SVG 1.1//EN" "http://www.w3.org/Graphics/SVG/1.1/DTD/svg11.dtd">
<svg version="1.1" id="Layer_1" xmlns="http://www.w3.org/2000/svg" xmlns:xlink="http://www.w3.org/1999/xlink" x="0px" y="0px"
	 width="1280px" height="800px" viewBox="0 0 1280 800" enable-background="new 0 0 1280 800" xml:space="preserve">
<rect y="0" fill="#F0F0F0" width="1280" height="800"/>
<path fill="none" d="M514.75,275.75h250.5v250.5h-250.5V275.75z"/>
<path fill="#999999" d="M715.652,413.688V502.5H538.027V324.875h63.692c0.632-9.007,2.793-17.507,6.089-25.375h-69.781
	c-13.958,0-25.375,11.417-25.375,25.375V502.5c0,13.95,11.417,25.375,25.375,25.375h177.625c13.951,0,25.375-11.425,25.375-25.375
	v-63.438L715.652,413.688z M696.621,477.125H557.059l34.891-44.791l24.867,29.948l34.891-44.915L696.621,477.125z M732.144,361.544
	c5.589-8.884,8.884-19.162,8.884-30.325c0-31.595-25.498-57.094-57.094-57.094c-31.595,0-57.094,25.499-57.094,57.094
	s25.499,57.094,56.971,57.094c11.163,0,21.559-3.296,30.317-8.883l39.587,39.586L771.73,401L732.144,361.544z M683.934,362.938
	c-17.507,0-31.719-14.212-31.719-31.719s14.212-31.719,31.719-31.719s31.719,14.212,31.719,31.719S701.44,362.938,683.934,362.938z"
	/>
<path fill="none" d="M514.75,275.75h250.5v250.5h-250.5V275.75z"/>
</svg>
