<?xml version="1.0" encoding="utf-8"?>
<!-- Generator: Adobe Illustrator 16.0.0, SVG Export Plug-In . SVG Version: 6.00 Build 0)  -->
<!DOCTYPE svg PUBLIC "-//W3C//DTD SVG 1.1//EN" "http://www.w3.org/Graphics/SVG/1.1/DTD/svg11.dtd">
<svg version="1.1" id="Layer_1" xmlns="http://www.w3.org/2000/svg" xmlns:xlink="http://www.w3.org/1999/xlink" x="0px" y="0px"
	 width="600px" height="900px" viewBox="0 0 600 900" enable-background="new 0 0 600 900" xml:space="preserve">
<rect fill="#F0F0F0" width="600" height="900"/>
<g>
	<path fill="#999999" d="M300,428.651c17.15,0,31.051,13.899,31.051,31.052c0,17.15-13.9,31.051-31.051,31.051
		s-31.05-13.9-31.05-31.051C268.95,442.551,282.85,428.651,300,428.651z"/>
	<path fill="#999999" d="M270.892,362.676l-17.757,19.405h-30.756c-10.669,0-19.405,8.735-19.405,19.405v116.432
		c0,10.67,8.736,19.406,19.405,19.406h155.242c10.67,0,19.405-8.736,19.405-19.406V401.486c0-10.67-8.735-19.405-19.405-19.405
		h-30.756l-17.758-19.405H270.892z M300,508.217c-26.777,0-48.513-21.736-48.513-48.514c0-26.778,21.736-48.514,48.513-48.514
		s48.514,21.735,48.514,48.514C348.514,486.48,326.777,508.217,300,508.217z"/>
</g>
</svg>
